<svg xmlns="http://www.w3.org/2000/svg" xmlns:svg="http://www.w3.org/2000/svg" width="300" height="300" x="0" y="0" fill="#f39c12" version="1.1" viewBox="0 0 1150.949 1148.739"><g><path fill="#f39c12" d="m -401.87494,1035.0088 c -20.49039,-1.2664 -41.64531,-3.3398 -56.875,-5.5744 -120.7717,-17.7206 -230.75676,-71.85871 -318.55833,-156.80441 -90.88557,-87.9295 -150.39187,-204.438 -168.86557,-330.62502 -4.2575,-29.08131 -5.5507,-48.30232 -5.5507,-82.5 0,-34.19768 1.2932,-53.41869 5.5507,-82.5 17.6653,-120.66555 71.8544,-230.75811 156.7989,-318.558334 87.92946,-90.88557 204.438,-150.3919 330.625,-168.865546 29.08131,-4.25748 48.30232,-5.55069 82.5,-5.55069 34.19768,0 53.41869,1.29321 82.5,5.55069 126.187,18.473646 242.695537,77.979976 330.625001,168.865546 26.58711,27.48096 45.60046,51.079924 66.198779,82.164534 54.00432,81.49708 85.21823,170.4166 94.61068,269.5188 0.84706,8.9375 1.5401,31.15625 1.5401,49.375 0,44.49681 -3.06956,75.17263 -11.78463,117.76996 -14.70497,71.87486 -45.7252,144.69076 -88.166679,206.95996 -48.34239,70.9268 -114.32521,132.0327 -188.648254,174.7049 -70.927497,40.7226 -153.525847,66.75361 -235.624997,74.25771 -15.46289,1.4134 -64.58639,2.5708 -76.875,1.8113 z m 77.86825,-139.79801 c 129.69218,-16.8933 241.289447,-85.7575 312.085151,-192.5808 38.83749,-58.6017 62.06161,-122.512 70.86035,-195.00002 2.20786,-18.1894 2.20786,-75.5606 0,-93.75 -14.46903,-119.20239 -71.00919,-221.84159 -162.688751,-295.33419 -63.24458,-50.698414 -140.88429,-82.693564 -225.625,-92.979564 -18.1894,-2.20786 -75.5606,-2.20786 -93.75,0 -84.74071,10.286 -162.38043,42.28115 -225.625,92.979564 -91.67956,73.4926 -148.21973,176.1318 -162.68875,295.33419 -2.20786,18.1894 -2.20786,75.5606 0,93.75 14.46714,119.18692 71.05272,221.91002 162.68875,295.33842 63.30337,50.7253 146.19949,84.7807 225.625,92.6913 7.5625,0.7532 15.71875,1.5927 18.125,1.8655 10.34984,1.1734 66.54462,-0.4324 80.99325,-2.3144 z" transform="translate(951.72454,115.9696)"/></g></svg>